<svg width="12" height="13" viewBox="0 0 12 13" fill="none" xmlns="http://www.w3.org/2000/svg">
<g clip-path="url(#clip0)">
<path d="M6.27381 11.3486C5.95873 11.7762 5.46806 12.0391 4.93754 12.0652C4.40702 12.0916 3.8932 11.8778 3.53772 11.483L0.352174 7.94788C-0.15411 7.38639 -0.109137 6.52086 0.452353 6.01458C1.01438 5.50829 1.87937 5.55353 2.38566 6.11529L4.63943 8.61655C4.67282 8.65371 4.72129 8.67364 4.77111 8.67122C4.8212 8.6688 4.86698 8.64375 4.89688 8.60389L9.52937 2.32086C9.97776 1.71224 10.8347 1.58271 11.4436 2.03136C12.0519 2.48002 12.1812 3.33693 11.7325 3.94528L6.27381 11.3486Z" fill="black"/>
</g>
<defs>
<clipPath id="clip0">
<rect width="12" height="12" fill="white" transform="translate(0 0.916016)"/>
</clipPath>
</defs>
</svg>
