<svg width="98" height="98" viewBox="0 0 98 98" fill="none" xmlns="http://www.w3.org/2000/svg">
<path d="M60.4844 49.7656C59.4278 49.7656 58.5703 50.6231 58.5703 51.6797C58.5703 52.7362 59.4278 53.5938 60.4844 53.5938C61.5409 53.5938 62.3984 52.7362 62.3984 51.6797C62.3984 50.6231 61.5409 49.7656 60.4844 49.7656Z" fill="url(#paint0_linear)"/>
<path d="M0.477561 45.2863C0.482729 45.2923 0.487323 45.299 0.492683 45.3047C0.493448 45.3055 0.494022 45.3064 0.494788 45.3074L47.5807 97.3699C47.9316 97.7579 48.4633 98 49.0004 98C49.5357 98 50.0665 97.7606 50.42 97.3699L97.506 45.3074C97.5067 45.3066 97.5073 45.3057 97.5081 45.3047C97.5134 45.2988 97.5179 45.2923 97.5232 45.2863C98.1367 44.5885 98.1527 43.5635 97.5959 42.8494C97.5906 42.8425 97.5866 42.8346 97.581 42.8277L82.2685 23.6871C81.9054 23.2331 81.3553 22.9688 80.7738 22.9688C72.9708 22.9688 23.5761 22.9688 17.2269 22.9688C16.6455 22.9688 16.0955 23.2331 15.7323 23.6871L0.419757 42.8277C0.414206 42.8346 0.410378 42.8423 0.404827 42.8494C-0.157716 43.571 -0.129005 44.5963 0.477561 45.2863ZM38.5996 26.7969H59.401L68.5885 42.1094H29.4121L38.5996 26.7969ZM28.968 45.9375H69.0324L49.0002 91.344L28.968 45.9375ZM73.2167 45.9375H91.7745L55.5426 85.9984L73.2167 45.9375ZM24.7839 45.9375L42.4577 85.9984L6.22607 45.9375H24.7839ZM92.1037 42.1094H73.0527L63.8652 26.7969H79.8537L92.1037 42.1094ZM18.1467 26.7969H34.1352L24.9477 42.1094H5.89666L18.1467 26.7969Z" fill="url(#paint1_linear)"/>
<path d="M52.8273 49.7656H38.6211C37.564 49.7656 36.707 50.6226 36.707 51.6797C36.707 52.7368 37.564 53.5938 38.6211 53.5938H52.8273C53.8844 53.5938 54.7413 52.7368 54.7413 51.6797C54.7413 50.6226 53.8844 49.7656 52.8273 49.7656Z" fill="url(#paint2_linear)"/>
<path d="M49 15.3125C50.0571 15.3125 50.914 14.4556 50.914 13.3984V1.91406C50.914 0.856926 50.0571 0 49 0C47.9429 0 47.0859 0.856926 47.0859 1.91406V13.3984C47.0859 14.4556 47.9429 15.3125 49 15.3125Z" fill="url(#paint3_linear)"/>
<path d="M61.838 14.7518L69.4942 7.09559C70.2417 6.34815 70.2417 5.13617 69.4942 4.38853C68.7468 3.6409 67.5348 3.64109 66.7871 4.38853L59.1309 12.0448C58.3835 12.7922 58.3835 14.0042 59.1309 14.7518C59.8783 15.4993 61.0903 15.4995 61.838 14.7518Z" fill="url(#paint4_linear)"/>
<path d="M36.1622 14.7518C36.9097 15.4992 38.1216 15.4992 38.8693 14.7518C39.6167 14.0043 39.6167 12.7923 38.8693 12.0447L31.213 4.38846C30.4656 3.64102 29.2536 3.64102 28.506 4.38846C27.7583 5.1359 27.7585 6.34789 28.506 7.09552L36.1622 14.7518Z" fill="url(#paint5_linear)"/>
<defs>
<linearGradient id="paint0_linear" x1="60.3605" y1="51.1237" x2="60.8221" y2="51.7015" gradientUnits="userSpaceOnUse">
<stop stop-color="#3C1A8A"/>
<stop offset="1" stop-color="#29057D"/>
</linearGradient>
<linearGradient id="paint1_linear" x1="45.829" y1="49.5877" x2="54.0877" y2="63.0893" gradientUnits="userSpaceOnUse">
<stop stop-color="#3C1A8A"/>
<stop offset="1" stop-color="#29057D"/>
</linearGradient>
<linearGradient id="paint2_linear" x1="45.1405" y1="51.1237" x2="45.2966" y2="52.0439" gradientUnits="userSpaceOnUse">
<stop stop-color="#3C1A8A"/>
<stop offset="1" stop-color="#29057D"/>
</linearGradient>
<linearGradient id="paint3_linear" x1="48.8761" y1="5.43243" x2="49.9553" y2="5.77014" gradientUnits="userSpaceOnUse">
<stop stop-color="#3C1A8A"/>
<stop offset="1" stop-color="#29057D"/>
</linearGradient>
<linearGradient id="paint4_linear" x1="63.9409" y1="7.90229" x2="65.3258" y2="9.63574" gradientUnits="userSpaceOnUse">
<stop stop-color="#3C1A8A"/>
<stop offset="1" stop-color="#29057D"/>
</linearGradient>
<linearGradient id="paint5_linear" x1="33.3159" y1="7.90224" x2="34.7008" y2="9.63569" gradientUnits="userSpaceOnUse">
<stop stop-color="#3C1A8A"/>
<stop offset="1" stop-color="#29057D"/>
</linearGradient>
</defs>
</svg>
