<svg width="16" height="16" viewBox="0 0 16 16" fill="none" xmlns="http://www.w3.org/2000/svg">
<path d="M0.334744 2.97362C2.53068 4.83334 6.38387 8.10516 7.51637 9.12531C7.6684 9.263 7.83146 9.333 8.00075 9.333C8.16968 9.333 8.33246 9.26366 8.48415 9.12663C9.61762 8.10547 13.4708 4.83334 15.6668 2.97362C15.8035 2.85806 15.8243 2.65494 15.7137 2.51366C15.4578 2.18719 15.0763 2 14.6674 2H1.33409C0.925245 2 0.543713 2.18719 0.287869 2.51369C0.177182 2.65494 0.198026 2.85806 0.334744 2.97362Z" fill="black"/>
<path d="M15.8067 3.98127C15.6885 3.92627 15.5495 3.94546 15.4512 4.02946C13.0159 6.0939 9.90788 8.74009 8.93 9.62124C8.38116 10.1167 7.61944 10.1167 7.06931 9.62058C6.027 8.68146 2.53675 5.71433 0.548813 4.02943C0.449844 3.94543 0.310531 3.9269 0.193344 3.98124C0.0755312 4.03596 0 4.1538 0 4.28368V12.6665C0 13.4019 0.597969 13.9998 1.33334 13.9998H14.6667C15.402 13.9998 16 13.4019 16 12.6665V4.28368C16 4.1538 15.9245 4.03565 15.8067 3.98127Z" fill="black"/>
</svg>
