<svg width="12" height="12" viewBox="0 0 12 12" fill="none" xmlns="http://www.w3.org/2000/svg">
<path d="M6 0C2.68663 0 0 2.68637 0 5.99974C0 9.31337 2.68663 12 6 12C9.31337 12 12 9.31337 12 5.99974C12 2.68637 9.31363 0 6 0ZM6.91719 9.27592C6.91719 9.77904 6.50522 10.1868 6.00262 10.1868C5.49976 10.1868 5.08804 9.77904 5.08804 9.27592V5.29076C5.08804 4.7879 5.49976 4.38011 6.00262 4.38011C6.50522 4.38011 6.91719 4.78764 6.91719 5.29076V9.27592ZM6 3.62766C5.44502 3.62766 4.99507 3.1777 4.99507 2.62299C4.99507 2.06775 5.44502 1.61832 6 1.61832C6.55472 1.61832 7.00493 2.06775 7.00493 2.62299C7.00493 3.1777 6.55472 3.62766 6 3.62766Z" fill="black"/>
</svg>
