<svg width="24" height="24" viewBox="0 0 24 24" fill="none" xmlns="http://www.w3.org/2000/svg">
<g clip-path="url(#clip0)">
<path d="M1.49971 1.63329C-0.386289 3.59229 -0.000289023 5.67329 -0.000289023 11.9953C-0.000289023 17.2453 -0.916289 22.5083 3.87771 23.7473C5.37471 24.1323 18.6387 24.1323 20.1337 23.7453C22.1297 23.2303 23.7537 21.6113 23.9757 18.7883C24.0067 18.3943 24.0067 5.60329 23.9747 5.20129C23.7387 2.19429 21.8877 0.461291 19.4487 0.110291C18.8897 0.0292905 18.7777 0.00529053 15.9097 0.000290532C5.73671 0.00529053 3.50671 -0.44771 1.49971 1.63329Z" fill="url(#paint0_linear)"/>
<path d="M11.9978 3.13892C8.36681 3.13892 4.91881 2.81592 3.60181 6.19592C3.05781 7.59192 3.13681 9.40492 3.13681 12.0009C3.13681 14.2789 3.06381 16.4199 3.60181 17.8049C4.91581 21.1869 8.39181 20.8629 11.9958 20.8629C15.4728 20.8629 19.0578 21.2249 20.3908 17.8049C20.9358 16.3949 20.8558 14.6089 20.8558 12.0009C20.8558 8.53892 21.0468 6.30392 19.3678 4.62592C17.6678 2.92592 15.3688 3.13892 11.9938 3.13892H11.9978ZM11.2038 4.73592C18.7778 4.72392 19.7418 3.88192 19.2098 15.5789C19.0208 19.7159 15.8708 19.2619 11.9988 19.2619C4.93881 19.2619 4.73581 19.0599 4.73581 11.9969C4.73581 4.85192 5.29581 4.73992 11.2038 4.73392V4.73592ZM16.7278 6.20692C16.1408 6.20692 15.6648 6.68292 15.6648 7.26992C15.6648 7.85692 16.1408 8.33292 16.7278 8.33292C17.3148 8.33292 17.7908 7.85692 17.7908 7.26992C17.7908 6.68292 17.3148 6.20692 16.7278 6.20692ZM11.9978 7.44992C9.48481 7.44992 7.44781 9.48793 7.44781 12.0009C7.44781 14.5139 9.48481 16.5509 11.9978 16.5509C14.5108 16.5509 16.5468 14.5139 16.5468 12.0009C16.5468 9.48793 14.5108 7.44992 11.9978 7.44992ZM11.9978 9.04692C15.9028 9.04692 15.9078 14.9549 11.9978 14.9549C8.09381 14.9549 8.08781 9.04692 11.9978 9.04692Z" fill="white"/>
</g>
<defs>
<linearGradient id="paint0_linear" x1="1.54573" y1="22.4674" x2="23.8512" y2="3.16226" gradientUnits="userSpaceOnUse">
<stop stop-color="#FFDD55"/>
<stop offset="0.5" stop-color="#FF543E"/>
<stop offset="1" stop-color="#C837AB"/>
</linearGradient>
<clipPath id="clip0">
<rect width="24" height="24" fill="white"/>
</clipPath>
</defs>
</svg>
