<svg width="63" height="50" viewBox="0 0 63 50" fill="none" xmlns="http://www.w3.org/2000/svg">
<path fill-rule="evenodd" clip-rule="evenodd" d="M17.4444 16.5539C17.7979 16.0292 18.4476 15.7895 19.0572 15.9589L24.0972 17.3598C24.7068 17.5292 25.1397 18.0697 25.1717 18.7017L25.2761 20.7613C25.8421 21.1435 26.3772 21.5628 26.8788 22.0147L28.905 21.6182C29.526 21.4967 30.155 21.7862 30.4667 22.3369L33.0431 26.8895C33.3547 27.4402 33.279 28.1285 32.8551 28.5983L31.4765 30.1262C31.5984 30.7475 31.6806 31.3795 31.7209 32.0188L33.4441 33.1509C33.9729 33.4983 34.2201 34.1451 34.0577 34.7567L32.7153 39.8126C32.553 40.4241 32.0175 40.8632 31.386 40.9025L29.3285 41.0307C28.9483 41.6085 28.5299 42.1548 28.0778 42.6671L28.4956 44.6852C28.6239 45.3048 28.3413 45.937 27.794 46.2546L23.2697 48.8805C22.7225 49.1981 22.0334 49.1299 21.559 48.7112L20.0139 47.3473C19.3262 47.4896 18.6249 47.5832 17.9148 47.6251L16.7774 49.3419C16.4279 49.8694 15.7802 50.114 15.1692 49.9493L10.1186 48.5874C9.50763 48.4227 9.07065 47.8855 9.03374 47.2539L8.91355 45.1972C8.33739 44.8148 7.79277 44.3944 7.28228 43.9403L5.26336 44.3506C4.64329 44.4766 4.01216 44.1917 3.69652 43.6433L1.08712 39.1095C0.771487 38.5611 0.842186 37.8723 1.26263 37.3994L2.63347 35.8577C2.49378 35.1689 2.40301 34.4666 2.36397 33.7558L0.653498 32.613C0.127369 32.2615 -0.114807 31.6128 0.0522814 31.0025L1.43364 25.9571C1.60073 25.3468 2.13959 24.9119 2.77139 24.8774L4.82782 24.7652C5.20951 24.1951 5.62862 23.6561 6.08074 23.1508L5.67716 21.1274C5.5534 20.5068 5.8406 19.8767 6.39014 19.5631L10.9334 16.9702C11.4829 16.6565 12.1715 16.7297 12.6428 17.1519L14.1765 18.5256C14.8705 18.387 15.5779 18.298 16.294 18.2615L17.4444 16.5539ZM15.1598 40.0505C19.0832 41.0922 23.1082 38.7561 24.1499 34.8327C25.1916 30.9092 22.8555 26.8842 18.9321 25.8425C15.0086 24.8008 10.9836 27.1369 9.94192 31.0604C8.90023 34.9838 11.2363 39.0088 15.1598 40.0505Z" fill="white"/>
<path fill-rule="evenodd" clip-rule="evenodd" d="M33.8781 0.398715C34.0055 0.151162 34.2618 -0.00317438 34.5402 4.95438e-05L36.5716 0.0235748C36.85 0.0267987 37.1026 0.18703 37.2242 0.437466L37.886 1.80021C38.7819 2.03808 39.6262 2.40285 40.3983 2.87411L41.842 2.41028C42.1071 2.32513 42.3975 2.39704 42.5922 2.59603L44.013 4.04811C44.2077 4.24711 44.2733 4.53903 44.1823 4.80217L43.6886 6.23142C44.1305 6.98957 44.471 7.81406 44.6915 8.68633L46.0452 9.36319C46.2943 9.48769 46.4516 9.7422 46.4516 10.0206V12.0521C46.4516 12.3305 46.2943 12.585 46.0452 12.7095L44.6914 13.3865C44.4626 14.291 44.1048 15.1442 43.6387 15.9253L44.1176 17.3619C44.2056 17.626 44.1369 17.9172 43.94 18.114L42.5035 19.5505C42.3066 19.7474 42.0155 19.8161 41.7513 19.7281L40.314 19.249C39.5232 19.7205 38.6586 20.081 37.7416 20.3091L37.0589 21.6615C36.9335 21.91 36.6784 22.0663 36.4 22.0653L34.3684 22.0574C34.09 22.0563 33.8361 21.8981 33.7126 21.6486L33.0402 20.2907C32.1377 20.0585 31.2868 19.6979 30.5082 19.2294L29.0686 19.7035C28.8042 19.7906 28.5133 19.7208 28.3171 19.5232L26.8858 18.0815C26.6897 17.8839 26.622 17.5925 26.711 17.3287L27.1959 15.8913C26.7273 15.0985 26.37 14.2322 26.1454 13.3137L24.7958 12.6258C24.5477 12.4994 24.3924 12.2437 24.3946 11.9653L24.4102 9.93384C24.4124 9.65545 24.5716 9.40216 24.8216 9.27958L26.1824 8.61228C26.4172 7.71433 26.7793 6.86789 27.2483 6.0934L26.7789 4.65017C26.6927 4.38542 26.7636 4.09474 26.9619 3.89932L28.4088 2.47328C28.6071 2.27786 28.8988 2.21124 29.1622 2.30119L30.5959 2.79069C31.3924 2.32295 32.2627 1.96733 33.1851 1.74551L33.8781 0.398715ZM35.4274 16.1812C38.269 16.1812 40.5725 13.8777 40.5725 11.0361C40.5725 8.19456 38.269 5.89102 35.4274 5.89102C32.5859 5.89102 30.2823 8.19456 30.2823 11.0361C30.2823 13.8777 32.5859 16.1812 35.4274 16.1812Z" fill="white"/>
<path fill-rule="evenodd" clip-rule="evenodd" d="M49.3332 12.972C49.3272 12.7124 49.4921 12.4796 49.7391 12.3993L51.4232 11.8512C51.6701 11.7709 51.9405 11.862 52.0884 12.0754L52.891 13.2335C53.1724 13.2354 53.4516 13.2577 53.7265 13.2993L54.7 12.2783C54.8792 12.0903 55.1604 12.0422 55.3919 12.1598L56.9708 12.9621C57.2023 13.0797 57.3293 13.3353 57.2831 13.5908L57.0324 14.9793C57.2151 15.1637 57.3864 15.3612 57.5446 15.5709L58.9558 15.5219C59.2153 15.5128 59.45 15.6751 59.5332 15.9211L60.1007 17.5988C60.1839 17.8447 60.0959 18.1162 59.8842 18.2666L58.7323 19.0848C58.7338 19.3681 58.7146 19.6493 58.6758 19.9263L59.7076 20.8889C59.8975 21.066 59.9487 21.3467 59.8336 21.5795L59.0486 23.167C58.9335 23.3998 58.6793 23.5295 58.4233 23.4861L57.0325 23.2506C56.8302 23.4555 56.6118 23.6465 56.3784 23.8214L56.4219 25.2305C56.4299 25.4901 56.2667 25.7242 56.0204 25.8064L54.3405 26.3674C54.0942 26.4497 53.8232 26.3606 53.6736 26.1484L52.8622 24.9967C52.5772 24.9973 52.2943 24.977 52.0156 24.9368L51.0511 25.9633C50.8733 26.1525 50.5924 26.2027 50.36 26.0868L48.7753 25.296C48.543 25.1801 48.4142 24.9254 48.4585 24.6696L48.6989 23.2808C48.4942 23.0771 48.3035 22.8573 48.1291 22.6224L46.7253 22.6603C46.4657 22.6673 46.2323 22.5032 46.151 22.2566L45.5964 20.5746C45.5151 20.328 45.6052 20.0572 45.8181 19.9085L46.969 19.1043C46.9695 18.8207 46.9906 18.5394 47.0315 18.2623L46.0082 17.2937C45.8196 17.1152 45.7704 16.8341 45.8872 16.6022L46.6837 15.0204C46.8005 14.7885 47.0556 14.6606 47.3113 14.7058L48.6972 14.9509C48.9039 14.7445 49.1271 14.5524 49.3657 14.377L49.3332 12.972ZM53.7927 21.9001C55.3309 21.3798 56.156 19.7111 55.6357 18.173C55.1154 16.6349 53.4467 15.8097 51.9086 16.33C50.3705 16.8503 49.5453 18.519 50.0656 20.0571C50.5859 21.5952 52.2546 22.4204 53.7927 21.9001Z" fill="white"/>
</svg>
