<svg width="134" height="42" viewBox="0 0 134 42" fill="none" xmlns="http://www.w3.org/2000/svg">
<path fill-rule="evenodd" clip-rule="evenodd" d="M13.3195 12.6578C13.5894 12.2571 14.0855 12.074 14.5511 12.2034L18.3997 13.2731C18.8652 13.4025 19.1957 13.8153 19.2202 14.2978L19.2999 15.8697C19.7324 16.1618 20.1413 16.4822 20.5247 16.8275L22.0699 16.5251C22.5441 16.4324 23.0245 16.6534 23.2624 17.0739L25.2298 20.5503C25.4678 20.9708 25.41 21.4964 25.0863 21.8552L24.0353 23.02C24.1286 23.4949 24.1914 23.9781 24.2222 24.4667L25.5382 25.3313C25.9421 25.5966 26.1308 26.0906 26.0068 26.5575L24.9818 30.4183C24.8578 30.8853 24.4489 31.2205 23.9666 31.2506L22.3953 31.3485C22.1048 31.7901 21.785 32.2076 21.4394 32.5991L21.7583 34.1391C21.8562 34.6123 21.6404 35.095 21.2225 35.3375L17.7677 37.3427C17.3499 37.5852 16.8237 37.5331 16.4614 37.2134L15.2817 36.1721C14.7568 36.2807 14.2215 36.352 13.6795 36.384L12.8109 37.6952C12.544 38.0979 12.0493 38.2848 11.5828 38.159L7.72606 37.119C7.25955 36.9933 6.92587 36.5831 6.89769 36.1007L6.80588 34.5298C6.36609 34.2379 5.95037 33.9169 5.5607 33.5703L4.01862 33.8837C3.54513 33.9799 3.06318 33.7624 2.82217 33.3436L0.829591 29.8815C0.588571 29.4628 0.642558 28.9368 0.963616 28.5757L2.01069 27.3981C1.90406 26.8722 1.83476 26.336 1.80494 25.7933L0.499019 24.9209C0.0972607 24.6524 -0.0876678 24.1571 0.0399227 23.691L1.09475 19.8383C1.22234 19.3723 1.63382 19.0402 2.11627 19.0139L3.68616 18.9282C3.97721 18.4935 4.29676 18.0824 4.64145 17.697L4.33294 16.1502C4.23844 15.6764 4.45774 15.1952 4.87738 14.9557L8.34664 12.9757C8.76627 12.7362 9.29208 12.7921 9.65199 13.1145L10.8233 14.1637C11.3535 14.0577 11.894 13.9896 12.4411 13.9617L13.3195 12.6578ZM11.576 30.6C14.572 31.3954 17.6455 29.6115 18.441 26.6155C19.2364 23.6196 17.4525 20.546 14.4565 19.7505C11.4606 18.9551 8.387 20.739 7.59155 23.735C6.7961 26.7309 8.57999 29.8045 11.576 30.6Z" fill="white"/>
<path fill-rule="evenodd" clip-rule="evenodd" d="M25.8684 0.321431C25.9657 0.132397 26.1614 0.0145438 26.374 0.0170056L27.9252 0.0349698C28.1378 0.0374316 28.3307 0.159786 28.4236 0.351022L28.9291 1.39199C29.6128 1.57363 30.2571 1.85206 30.8465 2.21173L31.9493 1.85742C32.1517 1.79239 32.3735 1.8473 32.5222 1.99926L33.6071 3.10808C33.7558 3.26004 33.8058 3.48295 33.7364 3.68389L33.3592 4.77572C33.6965 5.35448 33.9564 5.98387 34.1248 6.64971L35.1589 7.16673C35.349 7.26181 35.4691 7.45615 35.4691 7.66874V9.22004C35.4691 9.43263 35.349 9.62698 35.1589 9.72205L34.1248 10.2391C33.9501 10.9298 33.677 11.5812 33.3211 12.1776L33.6868 13.2747C33.754 13.4764 33.7015 13.6988 33.5512 13.8491L32.4543 14.946C32.3039 15.0963 32.0816 15.1488 31.8799 15.0816L30.7823 14.7157C30.1789 15.0756 29.5191 15.3508 28.8194 15.525L28.2979 16.558C28.2021 16.7478 28.0073 16.8671 27.7947 16.8663L26.2434 16.8603C26.0308 16.8595 25.8369 16.7387 25.7426 16.5481L25.2293 15.5117C24.5396 15.3344 23.8893 15.0589 23.2943 14.7008L22.1953 15.0628C21.9933 15.1293 21.7712 15.076 21.6214 14.9251L20.5284 13.8242C20.3787 13.6733 20.327 13.4508 20.3949 13.2493L20.7652 12.152C20.4074 11.5467 20.1345 10.8852 19.963 10.184L18.9314 9.65824C18.742 9.5617 18.6234 9.36644 18.625 9.15385L18.637 7.6026C18.6386 7.39001 18.7602 7.1966 18.9511 7.103L19.9913 6.59293C20.1705 5.90758 20.4469 5.26154 20.8049 4.67038L20.4462 3.56784C20.3805 3.36567 20.4346 3.1437 20.586 2.99448L21.6909 1.90554C21.8423 1.75631 22.065 1.70544 22.2662 1.77413L23.3614 2.14805C23.9698 1.79076 24.6347 1.51914 25.3393 1.34978L25.8684 0.321431ZM27.0507 12.3732C29.2206 12.3732 30.9796 10.6142 30.9796 8.44439C30.9796 6.27454 29.2206 4.51553 27.0507 4.51553C24.8809 4.51553 23.1219 6.27454 23.1219 8.44439C23.1219 10.6142 24.8809 12.3732 27.0507 12.3732Z" fill="white"/>
<path fill-rule="evenodd" clip-rule="evenodd" d="M37.6714 9.92259C37.6668 9.72435 37.7928 9.54658 37.9814 9.48522L39.2674 9.06675C39.456 9.00539 39.6624 9.07498 39.7754 9.23795L40.3883 10.1222C40.6027 10.1237 40.8154 10.1406 41.0249 10.1722L41.7682 9.39272C41.905 9.24921 42.1198 9.21245 42.2965 9.30227L43.5022 9.9149C43.679 10.0047 43.7759 10.1999 43.7407 10.395L43.5495 11.4537C43.6896 11.595 43.8209 11.7463 43.9422 11.907L45.0185 11.8696C45.2166 11.8627 45.3958 11.9866 45.4594 12.1745L45.8927 13.4555C45.9563 13.6434 45.8891 13.8506 45.7274 13.9655L44.8492 14.5893C44.8504 14.8065 44.8357 15.0222 44.8059 15.2346L45.5917 15.9677C45.7367 16.103 45.7758 16.3173 45.688 16.4951L45.0885 17.7074C45.0006 17.8851 44.8065 17.9842 44.611 17.951L43.5512 17.7715C43.3962 17.9285 43.2288 18.0748 43.0499 18.2087L43.0831 19.2833C43.0892 19.4815 42.9646 19.6602 42.7765 19.723L41.4938 20.1514C41.3057 20.2142 41.0987 20.1463 40.9845 19.9842L40.3649 19.1048C40.1477 19.1052 39.9321 19.0897 39.7198 19.059L38.9833 19.8427C38.8476 19.9872 38.6331 20.0255 38.4556 19.937L37.2455 19.3331C37.0681 19.2446 36.9698 19.0501 37.0036 18.8547L37.1872 17.7941C37.031 17.6386 36.8855 17.4708 36.7523 17.2915L35.6776 17.3205C35.4794 17.3259 35.3011 17.2006 35.239 17.0122L34.8156 15.7278C34.7535 15.5395 34.8223 15.3328 34.9848 15.2192L35.8666 14.603C35.8671 14.3872 35.8833 14.173 35.9144 13.962L35.1332 13.2226C34.9892 13.0863 34.9517 12.8717 35.0409 12.6946L35.6491 11.4867C35.7383 11.3096 35.9331 11.2119 36.1283 11.2464L37.1864 11.4336C37.3441 11.2761 37.5143 11.1296 37.6963 10.9958L37.6714 9.92259ZM41.0773 16.7402C42.2518 16.3429 42.8819 15.0687 42.4846 13.8941C42.0873 12.7196 40.8131 12.0895 39.6386 12.4868C38.464 12.8841 37.834 14.1583 38.2312 15.3328C38.6285 16.5074 39.9028 17.1375 41.0773 16.7402Z" fill="white"/>
<path d="M33.2287 22.6027L38.4013 37.3123L43.52 22.6027H47.4264L40.1794 41.7306H36.5963L29.3223 22.6027H33.2287Z" fill="white"/>
<path d="M53.8228 42C52.2961 42 50.976 41.6677 49.8625 41.0032C48.7669 40.3386 47.9138 39.4586 47.3031 38.363C46.6924 37.2494 46.3871 36.0461 46.3871 34.7529C46.3871 33.4239 46.6835 32.2025 47.2762 31.089C47.8868 29.9575 48.7489 29.0595 49.8625 28.3949C50.976 27.7124 52.3051 27.3712 53.8497 27.3712C55.3943 27.3712 56.7144 27.7124 57.81 28.3949C58.9056 29.0595 59.7407 29.9485 60.3155 31.062C60.9082 32.1576 61.2045 33.343 61.2045 34.6182C61.2045 35.0852 61.1776 35.4893 61.1237 35.8306H50.2127C50.3025 36.9261 50.7066 37.7883 51.425 38.4169C52.1614 39.0455 53.0056 39.3598 53.9575 39.3598C54.6759 39.3598 55.3494 39.1892 55.978 38.8479C56.6246 38.4887 57.0646 38.0217 57.2981 37.447L60.3963 38.3091C59.8754 39.3867 59.0403 40.2758 57.8908 40.9762C56.7413 41.6587 55.3853 42 53.8228 42ZM50.1319 33.5406H57.5136C57.4059 32.4809 57.0018 31.6278 56.3013 30.9812C55.6188 30.3167 54.7836 29.9844 53.7958 29.9844C52.826 29.9844 51.9908 30.3167 51.2903 30.9812C50.6078 31.6278 50.2217 32.4809 50.1319 33.5406Z" fill="white"/>
<path d="M63.3768 22.0638H66.9869V37.2045C66.9869 37.8691 67.0947 38.3091 67.3102 38.5246C67.5257 38.7402 67.8221 38.8479 68.1992 38.8479C68.4866 38.8479 68.7829 38.812 69.0883 38.7402C69.3936 38.6683 69.663 38.5785 69.8965 38.4708L70.3814 41.2187C69.8965 41.4522 69.3307 41.6318 68.6842 41.7575C68.0376 41.8832 67.4539 41.9461 66.933 41.9461C65.8015 41.9461 64.9214 41.6498 64.2928 41.0571C63.6822 40.4464 63.3768 39.5843 63.3768 38.4708V22.0638Z" fill="white"/>
<path d="M78.474 42C76.9294 42 75.6003 41.6677 74.4867 41.0032C73.3911 40.3207 72.547 39.4227 71.9543 38.3091C71.3616 37.1956 71.0653 35.9922 71.0653 34.699C71.0653 33.3879 71.3616 32.1756 71.9543 31.062C72.565 29.9485 73.4181 29.0595 74.5137 28.3949C75.6272 27.7124 76.9473 27.3712 78.474 27.3712C80.0006 27.3712 81.3117 27.7124 82.4073 28.3949C83.5209 29.0595 84.374 29.9485 84.9667 31.062C85.5594 32.1756 85.8557 33.3879 85.8557 34.699C85.8557 35.9922 85.5594 37.1956 84.9667 38.3091C84.374 39.4227 83.5209 40.3207 82.4073 41.0032C81.3117 41.6677 80.0006 42 78.474 42ZM74.7831 34.699C74.7831 35.5252 74.9447 36.2616 75.268 36.9082C75.5913 37.5368 76.0313 38.0307 76.5881 38.3899C77.1449 38.7491 77.7735 38.9287 78.474 38.9287C79.1565 38.9287 79.7761 38.7491 80.3329 38.3899C80.8896 38.0128 81.3297 37.5099 81.653 36.8812C81.9942 36.2347 82.1648 35.4983 82.1648 34.6721C82.1648 33.8639 81.9942 33.1455 81.653 32.5168C81.3297 31.8703 80.8896 31.3674 80.3329 31.0082C79.7761 30.631 79.1565 30.4424 78.474 30.4424C77.7735 30.4424 77.1449 30.631 76.5881 31.0082C76.0313 31.3674 75.5913 31.8703 75.268 32.5168C74.9447 33.1455 74.7831 33.8729 74.7831 34.699Z" fill="white"/>
<path d="M88.4058 41.7306V22.6027H92.1236V38.4708H101.876V41.7306H88.4058Z" fill="white"/>
<path d="M102.819 37.5548C102.819 36.6388 103.07 35.8395 103.573 35.157C104.094 34.4566 104.812 33.9178 105.728 33.5406C106.644 33.1634 107.695 32.9748 108.88 32.9748C109.473 32.9748 110.075 33.0287 110.685 33.1365C111.296 33.2263 111.826 33.361 112.275 33.5406V32.7863C112.275 31.8882 112.005 31.1968 111.467 30.7118C110.946 30.2269 110.165 29.9844 109.123 29.9844C108.351 29.9844 107.614 30.1191 106.914 30.3885C106.213 30.6579 105.477 31.0531 104.705 31.5739L103.546 29.2031C104.48 28.5925 105.432 28.1345 106.402 27.8292C107.39 27.5238 108.422 27.3712 109.5 27.3712C111.512 27.3712 113.074 27.8741 114.188 28.8798C115.319 29.8856 115.885 31.3225 115.885 33.1904V37.6895C115.885 38.0846 115.948 38.363 116.074 38.5246C116.199 38.6683 116.424 38.7581 116.747 38.794V41.7306C116.424 41.8024 116.127 41.8473 115.858 41.8653C115.607 41.9012 115.391 41.9192 115.211 41.9192C114.493 41.9192 113.945 41.7575 113.568 41.4342C113.191 41.1109 112.966 40.7158 112.895 40.2488L112.814 39.5214C112.185 40.3297 111.413 40.9493 110.497 41.3804C109.599 41.7934 108.674 42 107.722 42C106.77 42 105.926 41.8114 105.189 41.4342C104.453 41.0391 103.869 40.5093 103.438 39.8447C103.025 39.1622 102.819 38.3989 102.819 37.5548ZM111.601 38.2822C112.05 37.8511 112.275 37.438 112.275 37.0429V35.615C111.341 35.2379 110.398 35.0493 109.446 35.0493C108.494 35.0493 107.722 35.2558 107.129 35.6689C106.537 36.064 106.24 36.5939 106.24 37.2584C106.24 37.7972 106.456 38.2822 106.887 38.7132C107.318 39.1443 107.937 39.3598 108.746 39.3598C109.284 39.3598 109.805 39.261 110.308 39.0634C110.829 38.8659 111.26 38.6055 111.601 38.2822Z" fill="white"/>
<path d="M127.287 42C126.209 42 125.248 41.7575 124.404 41.2726C123.56 40.7877 122.895 40.1231 122.411 39.279V41.7306H119.258V22.0638H122.869V30.0922C123.371 29.248 124.027 28.5835 124.835 28.0986C125.661 27.6136 126.622 27.3712 127.718 27.3712C128.939 27.3712 130.008 27.7124 130.924 28.3949C131.858 29.0595 132.585 29.9485 133.106 31.062C133.627 32.1756 133.887 33.3969 133.887 34.726C133.887 36.091 133.6 37.3213 133.025 38.4169C132.45 39.5125 131.66 40.3835 130.654 41.0301C129.667 41.6767 128.544 42 127.287 42ZM126.29 38.9287C127.062 38.9287 127.736 38.7402 128.311 38.363C128.903 37.9858 129.361 37.4829 129.685 36.8543C130.026 36.2077 130.196 35.5073 130.196 34.7529C130.196 33.9806 130.035 33.2712 129.711 32.6246C129.406 31.9601 128.975 31.4302 128.418 31.0351C127.862 30.64 127.224 30.4424 126.506 30.4424C125.715 30.4424 124.988 30.7118 124.323 31.2506C123.677 31.7715 123.192 32.4181 122.869 33.1904V36.558C123.102 37.2584 123.56 37.8332 124.242 38.2822C124.925 38.7132 125.607 38.9287 126.29 38.9287Z" fill="white"/>
</svg>
