<svg width="112" height="112" viewBox="0 0 112 112" fill="none" xmlns="http://www.w3.org/2000/svg">
<path fill-rule="evenodd" clip-rule="evenodd" d="M22.8417 44.4189L24.5924 43.0921V24.5575C26.9528 24.8499 28.4912 25.4085 29.7184 26.2298C31.288 27.2803 32.8619 29.1039 34.7731 32.7321L36.1659 35.376L39.1383 35.0693L39.1389 35.0692L39.2294 35.06C39.2924 35.0537 39.3874 35.0441 39.5128 35.0317C39.7635 35.007 40.1353 34.9708 40.6134 34.9259C41.5699 34.8361 42.9514 34.7114 44.6418 34.5727C48.0258 34.2949 52.6319 33.9624 57.5356 33.7411C62.4515 33.5192 67.6036 33.412 72.098 33.5743C76.0303 33.7163 79.0803 34.0572 81.0019 34.5455C82.2985 36.0415 85.0732 39.5356 87.7046 44.4372C91.0037 50.5826 93.9219 58.6505 93.674 67.5756C93.6511 68.4002 93.6022 69.2008 93.5299 69.9778C93.4947 70.0743 93.4659 70.1744 93.4439 70.2777C93.3892 70.5349 93.3816 70.7911 93.4153 71.0374C92.551 78.031 89.7791 83.0165 87.1114 86.3512C85.5533 88.2988 84.019 89.6953 82.8999 90.5891C82.3417 91.035 81.8915 91.352 81.6003 91.5464C81.4548 91.6435 81.3496 91.7096 81.2911 91.7456C81.2677 91.76 81.2519 91.7695 81.2439 91.7743L81.2415 91.7757L81.2394 91.7769L81.238 91.7778L79.0273 93.0347V106.107C79.0273 106.717 78.5325 107.212 77.9221 107.212H71.5667C70.9563 107.212 70.4614 106.717 70.4614 106.107V98.0935H36.7505V105.919C36.7505 106.522 36.2664 107.014 35.663 107.024L29.584 107.122C28.9667 107.132 28.4609 106.634 28.4609 106.017V93.8927L26.6206 92.5696C23.9855 90.6751 22.2838 89.2416 20.9036 87.6785C19.5403 86.1347 18.3495 84.303 16.9457 81.48L15.7261 79.0274H8.28958C6.15308 79.0274 4.42111 77.2954 4.42111 75.1589V64.1062C4.42111 61.9697 6.15308 60.2377 8.28958 60.2377H14.8713L15.6438 56.7807C16.4986 52.9551 17.3328 50.707 18.3342 49.0503C19.2992 47.4539 20.588 46.1268 22.8417 44.4189ZM97.5623 73.2357C94.901 89.0943 83.4484 95.6066 83.4484 95.6066V106.107C83.4484 109.159 80.9742 111.633 77.9221 111.633H71.5667C68.5146 111.633 66.0403 109.159 66.0403 106.107V102.515H41.1716V105.919C41.1716 108.936 38.7513 111.396 35.7343 111.444L29.6553 111.543C26.5687 111.592 24.0398 109.104 24.0398 106.017V96.1592C18.5521 92.2138 16.0112 89.53 12.987 83.4485H8.28958C3.71137 83.4485 0 79.7372 0 75.1589V64.1062C0 59.528 3.71137 55.8166 8.28958 55.8166H11.3291C13.1237 47.7849 15.1777 44.6797 20.1713 40.8953V22.6732C20.1713 21.1413 21.4212 19.888 22.9505 19.9763C30.7011 20.424 34.5601 22.8417 38.6847 30.6715C38.6847 30.6715 73.5009 27.0794 83.4484 30.6715C85.1064 32.3294 98.646 47.8033 98.0934 67.6983C98.0827 68.081 98.0671 68.4594 98.0466 68.8333C102.414 69.026 105.509 66.5705 106.849 63.5537C108.399 60.0676 107.597 56.0136 103.673 53.8927C102.599 53.3121 102.199 51.9709 102.78 50.8969C103.36 49.8229 104.702 49.4229 105.776 50.0034C112.076 53.4089 113.208 60.1313 110.889 65.3493C108.811 70.0256 103.953 73.6414 97.5623 73.2357Z" fill="url(#paint0_linear)"/>
<path d="M103.619 27.3556C103.619 42.4637 91.3719 54.7112 76.2638 54.7112C61.1557 54.7112 48.9082 42.4637 48.9082 27.3556C48.9082 12.2475 61.1557 0 76.2638 0C91.3719 0 103.619 12.2475 103.619 27.3556Z" fill="white"/>
<path fill-rule="evenodd" clip-rule="evenodd" d="M76.2638 50.2901C88.9302 50.2901 99.1983 40.022 99.1983 27.3556C99.1983 14.6892 88.9302 4.42111 76.2638 4.42111C63.5974 4.42111 53.3293 14.6892 53.3293 27.3556C53.3293 40.022 63.5974 50.2901 76.2638 50.2901ZM76.2638 54.7112C91.3719 54.7112 103.619 42.4637 103.619 27.3556C103.619 12.2475 91.3719 0 76.2638 0C61.1557 0 48.9082 12.2475 48.9082 27.3556C48.9082 42.4637 61.1557 54.7112 76.2638 54.7112Z" fill="url(#paint1_linear)"/>
<path d="M39.5129 57.7506C39.5129 62.1762 35.9252 65.7638 31.4996 65.7638C27.074 65.7638 23.4863 62.1762 23.4863 57.7506C23.4863 53.325 27.074 49.7373 31.4996 49.7373C35.9252 49.7373 39.5129 53.325 39.5129 57.7506Z" fill="#FFBA52"/>
<path d="M34.54 57.7502C34.54 59.4289 33.1791 60.7897 31.5005 60.7897C29.8218 60.7897 28.4609 59.4289 28.4609 57.7502C28.4609 56.0715 29.8218 54.7107 31.5005 54.7107C33.1791 54.7107 34.54 56.0715 34.54 57.7502Z" fill="white"/>
<path fill-rule="evenodd" clip-rule="evenodd" d="M66.041 20.4474C66.041 15.564 69.9998 11.6052 74.8832 11.6052H84.0018C85.2226 11.6052 86.2123 12.5949 86.2123 13.8158C86.2123 15.0366 85.2226 16.0263 84.0018 16.0263H74.8832C72.4415 16.0263 70.4621 18.0057 70.4621 20.4474C70.4621 22.8892 72.4415 24.8686 74.8832 24.8686H76.8175C82.0061 24.8686 86.2123 29.0748 86.2123 34.2634C86.2123 39.4521 82.0061 43.6583 76.8175 43.6583H68.2516C67.0307 43.6583 66.041 42.6686 66.041 41.4477C66.041 40.2269 67.0307 39.2372 68.2516 39.2372H76.8175C79.5644 39.2372 81.7912 37.0103 81.7912 34.2634C81.7912 31.5165 79.5644 29.2897 76.8175 29.2897H74.8832C69.9998 29.2897 66.041 25.3309 66.041 20.4474Z" fill="url(#paint2_linear)"/>
<defs>
<linearGradient id="paint0_linear" x1="30.245" y1="64.4946" x2="76.7522" y2="54.5478" gradientUnits="userSpaceOnUse">
<stop stop-color="#FFBA52"/>
<stop offset="0.515625" stop-color="#FF9B52"/>
<stop offset="1" stop-color="#FF6636"/>
</linearGradient>
<linearGradient id="paint1_linear" x1="63.6827" y1="26.575" x2="86.7341" y2="22.5401" gradientUnits="userSpaceOnUse">
<stop stop-color="#FFBA52"/>
<stop offset="0.515625" stop-color="#FF9B52"/>
<stop offset="1" stop-color="#FF6636"/>
</linearGradient>
<linearGradient id="paint2_linear" x1="71.4882" y1="27.1744" x2="80.1423" y2="26.2211" gradientUnits="userSpaceOnUse">
<stop stop-color="#FFBA52"/>
<stop offset="0.515625" stop-color="#FF9B52"/>
<stop offset="1" stop-color="#FF6636"/>
</linearGradient>
</defs>
</svg>
