<svg width="16" height="16" viewBox="0 0 16 16" fill="none" xmlns="http://www.w3.org/2000/svg">
<g clip-path="url(#clip0)">
<path d="M12.7359 2.73992C11.7649 1.06417 10.0401 0.0403906 8.12215 0.00126563C8.04028 -0.000421875 7.95787 -0.000421875 7.87597 0.00126563C5.95803 0.0403906 4.23328 1.06417 3.26222 2.73992C2.26965 4.4528 2.2425 6.5103 3.18956 8.24376L7.15715 15.5059C7.15894 15.5091 7.16072 15.5123 7.16256 15.5155C7.33712 15.8189 7.64984 16 7.99912 16C8.34837 16 8.66109 15.8189 8.83562 15.5155C8.83747 15.5123 8.83925 15.5091 8.84103 15.5059L12.8086 8.24376C13.7556 6.5103 13.7285 4.4528 12.7359 2.73992ZM7.99906 7.25002C6.7584 7.25002 5.74906 6.24067 5.74906 5.00002C5.74906 3.75936 6.7584 2.75002 7.99906 2.75002C9.23972 2.75002 10.2491 3.75936 10.2491 5.00002C10.2491 6.24067 9.23975 7.25002 7.99906 7.25002Z" fill="black"/>
</g>
<defs>
<clipPath id="clip0">
<rect width="16" height="16" fill="white"/>
</clipPath>
</defs>
</svg>
