<svg width="12" height="13" viewBox="0 0 12 13" fill="none" xmlns="http://www.w3.org/2000/svg">
<g clip-path="url(#clip0)">
<path d="M10.4118 5.32723H7.59742V2.50745C7.59742 1.62999 6.8807 0.918701 6.00324 0.918701C5.12603 0.918701 4.40957 1.62999 4.40957 2.50745V5.32749H1.58901C0.711805 5.32723 0 6.03852 0 6.91598C0 7.7937 0.711805 8.50499 1.58901 8.50499H4.40957V11.3253C4.40957 12.2028 5.12603 12.914 6.00324 12.914C6.8807 12.914 7.59742 12.2028 7.59742 11.3253V8.50473L10.4118 8.50525C11.289 8.50525 12.0003 7.79345 12.0003 6.91573C12 6.03852 11.2887 5.32723 10.4118 5.32723Z" fill="black"/>
</g>
<defs>
<clipPath id="clip0">
<rect width="12" height="12" fill="white" transform="translate(0 0.916016)"/>
</clipPath>
</defs>
</svg>
