<svg width="390" height="287" viewBox="0 0 390 287" fill="none" xmlns="http://www.w3.org/2000/svg">
<rect width="390" height="287" fill="url(#paint0_linear)"/>
<g clip-path="url(#clip0)">
<path d="M16.9932 286.916C105.06 209.053 201.733 211.981 261.401 286.916C246.406 286.916 16.9932 286.916 16.9932 286.916Z" fill="url(#paint1_linear)"/>
<path opacity="0.1" fill-rule="evenodd" clip-rule="evenodd" d="M0.000778198 119.547V286.916H167.441C159.865 272.974 152.681 258.576 145.577 244.338C113.37 179.792 82.8046 118.536 24.8035 118.007C16.0878 117.933 7.82759 118.473 0.000778198 119.547Z" fill="#680938"/>
<path opacity="0.1" fill-rule="evenodd" clip-rule="evenodd" d="M390.147 195.406V286.916H279.895C280.646 284.738 281.395 282.54 282.148 280.329C296.235 238.968 311.823 193.199 376.504 195.003C381.368 195.139 385.91 195.273 390.147 195.406Z" fill="#680938"/>
</g>
<defs>
<linearGradient id="paint0_linear" x1="72" y1="-2.72686e-06" x2="311" y2="485.5" gradientUnits="userSpaceOnUse">
<stop stop-color="#E74250"/>
<stop offset="0.473958" stop-color="#C40054"/>
<stop offset="1" stop-color="#790054"/>
</linearGradient>
<linearGradient id="paint1_linear" x1="-114645" y1="78541.6" x2="-114100" y2="81253.4" gradientUnits="userSpaceOnUse">
<stop stop-color="#B10755"/>
<stop offset="1" stop-color="#79234E"/>
</linearGradient>
<clipPath id="clip0">
<rect width="390" height="169" fill="white" transform="translate(0 118)"/>
</clipPath>
</defs>
</svg>
