<svg width="109" height="109" viewBox="0 0 109 109" fill="none" xmlns="http://www.w3.org/2000/svg">
<path d="M74.938 6.47192V3.06567C73.7127 3.06564 72.489 3.15722 71.2773 3.33966L71.7872 6.70823C72.8301 6.55106 73.8833 6.47207 74.938 6.47192Z" fill="url(#paint0_linear)"/>
<path d="M19.3798 12.5544C21.308 10.6261 23.5971 9.09651 26.1165 8.05292C28.6358 7.00934 31.3361 6.47222 34.063 6.47222C36.79 6.47222 39.4902 7.00934 42.0096 8.05292C44.529 9.09651 46.8181 10.6261 48.7463 12.5544L53.2962 17.1043C53.4544 17.2624 53.6421 17.3879 53.8488 17.4735C54.0554 17.5591 54.2769 17.6031 54.5005 17.6031C54.7242 17.6031 54.9457 17.5591 55.1523 17.4735C55.359 17.3879 55.5467 17.2624 55.7049 17.1043L60.2548 12.5542C62.5945 10.1954 65.472 8.43994 68.6399 7.43862L67.6112 4.19119C63.9277 5.36828 60.5795 7.40994 57.8463 10.1455L54.5005 13.4915L51.155 10.146C48.9105 7.90139 46.2458 6.1209 43.3132 4.90614C40.3806 3.69139 37.2374 3.06616 34.0632 3.06616C30.8889 3.06616 27.7457 3.69139 24.8131 4.90614C21.8805 6.1209 19.2158 7.90139 16.9713 10.146C16.2045 10.9128 15.4892 11.7295 14.8301 12.5908L17.5361 14.6592C18.1036 13.9177 18.7195 13.2146 19.3798 12.5544Z" fill="url(#paint1_linear)"/>
<path d="M40.8672 86.8594H44.2734V90.2656H40.8672V86.8594Z" fill="url(#paint2_linear)"/>
<path d="M64.7266 86.8594H68.1328V90.2656H64.7266V86.8594Z" fill="url(#paint3_linear)"/>
<path d="M102.722 68.2878C104.572 66.4342 105.61 63.9225 105.61 61.3039C105.61 58.6854 104.572 56.1737 102.722 54.3201L87.5548 39.1527C90.6844 35.837 92.3837 31.423 92.2854 26.8646C92.187 22.3062 90.2989 17.9696 87.0292 14.7919C83.7595 11.6143 79.3707 9.85092 74.8113 9.88284C70.252 9.91476 65.8883 11.7395 62.6634 14.9626L54.5005 23.1256L46.3377 14.9626C43.1137 11.7348 38.7486 9.90623 34.1868 9.87231C29.6249 9.83839 25.2331 11.6019 21.9615 14.7813C18.6899 17.9607 16.8017 22.3003 16.7053 26.8613C16.6088 31.4223 18.312 35.8378 21.4463 39.1527L6.27889 54.3201C4.42934 56.1737 3.39063 58.6854 3.39062 61.3039C3.39063 63.9225 4.42934 66.4342 6.27889 68.2878L17.0233 79.032V80.0468H15.3201C14.8684 80.0468 14.4352 80.2263 14.1158 80.5457C13.7965 80.8651 13.617 81.2983 13.617 81.75V98.7812H17.0233V83.4531H47.6795V98.7812H51.0858V81.75C51.0858 81.2983 50.9063 80.8651 50.5869 80.5457C50.2675 80.2263 49.8343 80.0468 49.3826 80.0468H47.6795V73.2343C47.6764 70.8202 46.8201 68.4848 45.2618 66.6409C43.7036 64.797 41.5437 63.5632 39.1639 63.1576V56.8873L44.4719 62.1953C47.1339 64.8509 50.7405 66.3422 54.5005 66.3422C58.2606 66.3422 61.8672 64.8509 64.5292 62.1953L69.8372 56.8873V63.1576C67.4573 63.5632 65.2975 64.797 63.7392 66.6409C62.181 68.4848 61.3246 70.8202 61.3215 73.2343V80.0468H59.6184C59.1667 80.0468 58.7335 80.2263 58.4141 80.5457C58.0947 80.8651 57.9153 81.2983 57.9153 81.75V98.7812H61.3215V83.4531H91.9778V98.7812H95.384V81.75C95.384 81.2983 95.2046 80.8651 94.8852 80.5457C94.5658 80.2263 94.1326 80.0468 93.6809 80.0468H91.9778V79.032L102.722 68.2878ZM44.2733 73.2343V80.0468H20.4295V78.3267C20.4295 78.103 20.3855 77.8815 20.2999 77.6749C20.2143 77.4683 20.0889 77.2805 19.9307 77.1224L8.68647 65.879C7.47495 64.6646 6.79456 63.0193 6.79456 61.3039C6.79456 59.5886 7.47495 57.9433 8.68647 56.7289L23.8456 41.5698L26.4756 44.1999C25.8449 45.2538 25.5125 46.4593 25.5138 47.6875V52.777L18.8965 59.3943L21.3049 61.8032L25.5138 57.5943V64.7187H28.92V47.6875C28.9215 46.7826 29.2811 45.9152 29.9201 45.2746C30.5591 44.634 31.4257 44.2724 32.3305 44.2686H32.3395C33.2461 44.2688 34.1155 44.6291 34.7565 45.2702C35.3975 45.9114 35.7576 46.7808 35.7576 47.6875V64.7187C35.7576 65.1704 35.9371 65.6036 36.2565 65.923C36.5759 66.2424 37.0091 66.4218 37.4608 66.4218C39.2669 66.4239 40.9985 67.1423 42.2757 68.4194C43.5528 69.6966 44.2712 71.4282 44.2733 73.2343ZM62.1205 59.7867C60.098 61.8046 57.3576 62.9379 54.5005 62.9379C51.6435 62.9379 48.9031 61.8046 46.8805 59.7867L39.1639 52.07V47.6875C39.1639 45.8775 38.4449 44.1416 37.1652 42.8617C35.8854 41.5818 34.1497 40.8626 32.3397 40.8624H32.3222C31.1166 40.8647 29.9335 41.1885 28.8947 41.8004L24.1975 37.1032C22.8858 35.8111 21.8428 34.2723 21.1286 32.5753C20.4144 30.8783 20.0431 29.0567 20.0362 27.2156C20.0293 25.3745 20.3868 23.5502 21.0882 21.8478C21.7895 20.1455 22.8209 18.5988 24.1228 17.2969C25.4247 15.9951 26.9714 14.9637 28.6737 14.2624C30.376 13.561 32.2004 13.2035 34.0415 13.2105C35.8826 13.2174 37.7042 13.5887 39.4012 14.3029C41.0982 15.0171 42.637 16.0601 43.929 17.3718L53.2962 26.739C53.4544 26.8972 53.6421 27.0226 53.8488 27.1082C54.0554 27.1938 54.2769 27.2379 54.5005 27.2379C54.7242 27.2379 54.9457 27.1938 55.1523 27.1082C55.3589 27.0226 55.5467 26.8972 55.7049 26.739L65.072 17.3718C66.3659 16.0683 67.9044 15.033 69.5993 14.3254C71.2942 13.6178 73.1121 13.2518 74.9487 13.2484C76.7854 13.2449 78.6046 13.6042 80.3021 14.3054C81.9996 15.0067 83.542 16.0362 84.8407 17.3349C86.1394 18.6336 87.169 20.176 87.8703 21.8735C88.5715 23.571 88.9308 25.3902 88.9274 27.2269C88.924 29.0635 88.558 30.8814 87.8504 32.5763C87.1428 34.2712 86.1076 35.8097 84.804 37.1036L80.1068 41.8008C79.068 41.1889 77.8849 40.8651 76.6793 40.8628H76.6624C74.8524 40.8628 73.1164 41.5818 71.8364 42.8616C70.5564 44.1415 69.8373 45.8774 69.8372 47.6875V52.07L62.1205 59.7867ZM64.7278 80.0468V73.2343C64.7298 71.4282 65.4482 69.6966 66.7254 68.4194C68.0025 67.1423 69.7341 66.4239 71.5403 66.4218C71.992 66.4218 72.4252 66.2424 72.7446 65.923C73.064 65.6036 73.2434 65.1704 73.2434 64.7187V47.6875C73.2434 47.2385 73.3319 46.7939 73.5037 46.3791C73.6755 45.9643 73.9274 45.5874 74.2448 45.2699C74.5623 44.9525 74.9392 44.7006 75.3541 44.5288C75.7689 44.357 76.2135 44.2686 76.6624 44.2686H76.6712C77.5759 44.2725 78.4423 44.6343 79.0812 45.2748C79.7201 45.9154 80.0795 46.7827 80.081 47.6875V64.7187H83.4873V57.5943L87.6961 61.8032L90.1046 59.3943L83.4873 52.777V47.6875C83.4883 46.4592 83.1556 45.2537 82.5246 44.1999L85.1546 41.5698L100.315 56.7289C101.526 57.9433 102.206 59.5886 102.206 61.3039C102.206 63.0193 101.526 64.6646 100.315 65.879L89.0712 77.1224C88.913 77.2805 88.7876 77.4683 88.702 77.6749C88.6164 77.8815 88.5724 78.103 88.5724 78.3267V80.0468H64.7278Z" fill="url(#paint4_linear)"/>
<defs>
<linearGradient id="paint0_linear" x1="73.1077" y1="3.06567" x2="73.1077" y2="6.70823" gradientUnits="userSpaceOnUse">
<stop stop-color="#F76C80"/>
<stop offset="0.338542" stop-color="#E64962"/>
<stop offset="0.682292" stop-color="#CD0077"/>
<stop offset="1" stop-color="#790054"/>
</linearGradient>
<linearGradient id="paint1_linear" x1="41.735" y1="3.06616" x2="41.735" y2="17.6031" gradientUnits="userSpaceOnUse">
<stop stop-color="#F76C80"/>
<stop offset="0.338542" stop-color="#E64962"/>
<stop offset="0.682292" stop-color="#CD0077"/>
<stop offset="1" stop-color="#790054"/>
</linearGradient>
<linearGradient id="paint2_linear" x1="721.981" y1="241.442" x2="721.981" y2="1574.26" gradientUnits="userSpaceOnUse">
<stop stop-color="#FC5C7D"/>
<stop offset="0.129" stop-color="#F35E85"/>
<stop offset="0.343" stop-color="#D9659B"/>
<stop offset="0.616" stop-color="#B070BF"/>
<stop offset="0.934" stop-color="#777FF0"/>
<stop offset="1" stop-color="#6A82FB"/>
</linearGradient>
<linearGradient id="paint3_linear" x1="1127.61" y1="241.442" x2="1127.61" y2="1574.26" gradientUnits="userSpaceOnUse">
<stop stop-color="#FC5C7D"/>
<stop offset="0.129" stop-color="#F35E85"/>
<stop offset="0.343" stop-color="#D9659B"/>
<stop offset="0.616" stop-color="#B070BF"/>
<stop offset="0.934" stop-color="#777FF0"/>
<stop offset="1" stop-color="#6A82FB"/>
</linearGradient>
<linearGradient id="paint4_linear" x1="54.5005" y1="9.87183" x2="54.5005" y2="98.7812" gradientUnits="userSpaceOnUse">
<stop stop-color="#F76C80"/>
<stop offset="0.338542" stop-color="#E64962"/>
<stop offset="0.682292" stop-color="#CD0077"/>
<stop offset="1" stop-color="#790054"/>
</linearGradient>
</defs>
</svg>
