<svg width="24" height="24" viewBox="0 0 24 24" fill="none" xmlns="http://www.w3.org/2000/svg">
<g clip-path="url(#clip0)">
<path d="M23.1541 13.893C23.8701 7.86602 22.8101 4.06102 20.8981 2.34002L20.8991 2.33902C17.8131 -0.599975 7.3911 -1.03498 3.6991 2.47102C2.0411 4.18602 1.4571 6.70302 1.3931 9.81903C1.3291 12.936 1.2531 18.775 6.6941 20.359H6.6991L6.6941 22.778C6.6941 22.778 6.6571 23.758 7.2831 23.955C7.9991 24.187 8.3231 23.732 10.5501 21.072C14.2741 21.395 17.1341 20.655 17.4591 20.547C18.2111 20.295 22.4661 19.732 23.1541 13.893ZM10.9171 19.37C10.9171 19.37 8.5601 22.309 7.8271 23.072C7.5871 23.32 7.3241 23.297 7.3281 22.805C7.3281 22.482 7.3461 18.789 7.3461 18.789C2.7331 17.467 3.0051 12.495 3.0551 9.89402C3.1051 7.29202 3.5811 5.16102 4.9851 3.72602C8.2241 0.689025 17.3611 1.36802 19.6891 3.55602C22.5351 6.07902 21.5221 13.207 21.5281 13.45C20.9431 18.324 17.4951 18.633 16.8611 18.844C16.5901 18.934 14.0751 19.581 10.9171 19.37Z" fill="white"/>
<path d="M10.9171 19.37C10.9171 19.37 8.5601 22.309 7.8271 23.072C7.5871 23.32 7.3241 23.297 7.3281 22.805C7.3281 22.482 7.3461 18.789 7.3461 18.789C2.7331 17.467 3.0051 12.495 3.0551 9.89402C3.1051 7.29202 3.5811 5.16102 4.9851 3.72602C8.2241 0.689025 17.3611 1.36802 19.6891 3.55602C22.5351 6.07902 21.5221 13.207 21.5281 13.45C20.9431 18.324 17.4951 18.633 16.8611 18.844C16.5901 18.934 14.0751 19.581 10.9171 19.37Z" fill="white"/>
<path d="M23.1541 13.893C23.8701 7.86602 22.8101 4.06102 20.8981 2.34002L20.8991 2.33902C17.8131 -0.599975 7.3911 -1.03498 3.6991 2.47102C2.0411 4.18602 1.4571 6.70302 1.3931 9.81903C1.3291 12.936 1.2531 18.775 6.6941 20.359H6.6991L6.6941 22.778C6.6941 22.778 6.6571 23.758 7.2831 23.955C7.9991 24.187 8.3231 23.732 10.5501 21.072C14.2741 21.395 17.1341 20.655 17.4591 20.547C18.2111 20.295 22.4661 19.732 23.1541 13.893ZM10.9171 19.37C10.9171 19.37 8.5601 22.309 7.8271 23.072C7.5871 23.32 7.3241 23.297 7.3281 22.805C7.3281 22.482 7.3461 18.789 7.3461 18.789C2.7331 17.467 3.0051 12.495 3.0551 9.89402C3.1051 7.29202 3.5811 5.16102 4.9851 3.72602C8.2241 0.689025 17.3611 1.36802 19.6891 3.55602C22.5351 6.07902 21.5221 13.207 21.5281 13.45C20.9431 18.324 17.4951 18.633 16.8611 18.844C16.5901 18.934 14.0751 19.581 10.9171 19.37Z" fill="#8E24AA"/>
<path d="M12.2204 4.29688C11.8354 4.29688 11.8354 4.89688 12.2204 4.90188C15.2074 4.92488 17.6674 7.00688 17.6944 10.8259C17.6944 11.2289 18.2844 11.2239 18.2794 10.8209H18.2784C18.2464 6.70588 15.5604 4.31988 12.2204 4.29688Z" fill="#8E24AA"/>
<path d="M16.151 10.193C16.142 10.591 16.731 10.61 16.736 10.207C16.785 7.93804 15.3859 6.06904 12.7569 5.87204C12.3719 5.84404 12.3319 6.44904 12.7159 6.47704C14.9959 6.65004 16.197 8.20604 16.151 10.193Z" fill="#8E24AA"/>
<path d="M15.5202 12.7741C15.0262 12.4881 14.5232 12.6661 14.3152 12.9471L13.8802 13.5101C13.6592 13.7961 13.2462 13.7581 13.2462 13.7581C10.2322 12.9611 9.42623 9.8071 9.42623 9.8071C9.42623 9.8071 9.38923 9.3801 9.66523 9.1511L10.2092 8.7011C10.4812 8.4851 10.6532 7.9651 10.3762 7.4541C9.63623 6.1171 9.13923 5.6561 8.88623 5.3021C8.62023 4.9691 8.22023 4.8941 7.80424 5.1191H7.79524C6.93024 5.6251 5.98324 6.5721 6.28624 7.5471C6.80324 8.5751 7.75323 11.8521 10.7812 14.3281C12.2042 15.4991 14.4562 16.6991 15.4122 16.9761L15.4212 16.9901C16.3632 17.3041 17.2792 16.3201 17.7682 15.4291V15.4221C17.9852 14.9911 17.9132 14.5831 17.5962 14.3161C17.0342 13.7681 16.1862 13.1631 15.5202 12.7741Z" fill="#8E24AA"/>
<path d="M13.1674 8.10418C14.1284 8.16018 14.5944 8.66218 14.6444 9.69318C14.6624 10.0962 15.2474 10.0682 15.2294 9.66518C15.1654 8.31918 14.4634 7.56917 13.1994 7.49917C12.8144 7.47617 12.7784 8.08118 13.1674 8.10418Z" fill="#8E24AA"/>
</g>
<defs>
<clipPath id="clip0">
<rect width="24" height="24" fill="white"/>
</clipPath>
</defs>
</svg>
